# xmcd
#
# Track frame offsets: 
#        150
#        7926
#        21853
#        37060
#        49444
#        68276
#        92948
#        109598
#        128764
#        144399
#        166116
#        196998
#        215606
#        237799
#        255951
#        275273
#        287366
#
# Disc length: 4048 seconds
#
# Revision: 0
# Processed by: cddbd v1.5.2PL0 Copyright (c) Steve Scherf et al.
# Submitted via: ExactAudioCopy v0.99pb5
#
DISCID=e00fce11
DTITLE=Various Artist - Romantyczne Ballady - CD3 To co dal nam swiat
DYEAR=2009
DGENRE=Ballad
TTITLE0=Bedziesz moja Pania - Marek Grechuta
TTITLE1=Zanim zrozumiesz - Varius Manx
TTITLE2=Po ten kwiat czerwony - No To Co
TTITLE3=Wedrujemy - Bajm
TTITLE4=To co dal nam swiat - Krzysztof Krawczyk
TTITLE5=Niecierpliwi - Robert Chojnacki i Piasek
TTITLE6=Pamelo, zegnaj - Tercet Egzotyczny
TTITLE7=Moja Krew - Republika
TTITLE8=Stan pogody - Anna Jurksztowicz
TTITLE9=Blues na wpol do piatej - Universe
TTITLE10=List do matki - Violetta Villas
TTITLE11=Son of the blue Sky - Wilki
TTITLE12=Zacznikmy inaczej - Felicjan Andrzejczak
TTITLE13=Kochankowie - Big Day
TTITLE14=Usmiechnij sie, mamo - Waldemar Kocon
TTITLE15=Kolor czerwony - Sztywny Pal Azji
TTITLE16=Za pozno - Helikopter
EXTD=
EXTT0=
EXTT1=
EXTT2=
EXTT3=
EXTT4=
EXTT5=
EXTT6=
EXTT7=
EXTT8=
EXTT9=
EXTT10=
EXTT11=
EXTT12=
EXTT13=
EXTT14=
EXTT15=
EXTT16=
PLAYORDER=
